<svg width="24" height="24" viewBox="0 0 24 24" fill="none" xmlns="http://www.w3.org/2000/svg">
<circle cx="12" cy="12" r="12" fill="#E2E8F0"/>
<path d="M12 15C14.1974 15 16.119 15.9451 17.1643 17.3548L16.0591 17.8776C15.2084 16.8694 13.7084 16.2 12 16.2C10.2915 16.2 8.79156 16.8694 7.94093 17.8776L6.83618 17.3543C7.88151 15.9448 9.80283 15 12 15ZM12 6C13.6568 6 15 7.34315 15 9V10.8C15 12.4133 13.7266 13.7291 12.1301 13.7972L12 13.8C10.3431 13.8 8.99999 12.4568 8.99999 10.8V9C8.99999 7.38675 10.2734 6.07091 11.8699 6.00277L12 6ZM12 7.2C11.0414 7.2 10.2578 7.94935 10.203 8.89424L10.2 9V10.8C10.2 11.7941 11.0059 12.6 12 12.6C12.9586 12.6 13.7422 11.8507 13.7969 10.9058L13.8 10.8V9C13.8 8.00589 12.9941 7.2 12 7.2Z" fill="#404040"/>
</svg>
